<?xml version="1.0" encoding="UTF-8" standalone="no"?>
<!-- Created with Inkscape (http://www.inkscape.org/) -->

<svg
   xmlns:dc="http://purl.org/dc/elements/1.1/"
   xmlns:cc="http://creativecommons.org/ns#"
   xmlns:rdf="http://www.w3.org/1999/02/22-rdf-syntax-ns#"
   xmlns:svg="http://www.w3.org/2000/svg"
   xmlns="http://www.w3.org/2000/svg"
   xmlns:sodipodi="http://sodipodi.sourceforge.net/DTD/sodipodi-0.dtd"
   xmlns:inkscape="http://www.inkscape.org/namespaces/inkscape"
   width="128"
   height="128"
   viewBox="0 0 33.866665 33.866667"
   version="1.1"
   id="svg8"
   inkscape:version="0.92.5 (2060ec1f9f, 2020-04-08)"
   sodipodi:docname="wlog.svg"
   inkscape:export-filename="/data/1-ai-data/dev/wasta-images/wasta-images/2020-logos/wlog-dark-128.png"
   inkscape:export-xdpi="96"
   inkscape:export-ydpi="96"
   style="enable-background:new">
  <defs
     id="defs2" />
  <sodipodi:namedview
     id="base"
     pagecolor="#ffffff"
     bordercolor="#666666"
     borderopacity="1.0"
     inkscape:pageopacity="0.0"
     inkscape:pageshadow="2"
     inkscape:zoom="5.6568542"
     inkscape:cx="-21.461114"
     inkscape:cy="54.888519"
     inkscape:document-units="px"
     inkscape:current-layer="g976"
     showgrid="false"
     units="px"
     inkscape:pagecheckerboard="true"
     inkscape:window-width="1878"
     inkscape:window-height="1056"
     inkscape:window-x="42"
     inkscape:window-y="0"
     inkscape:window-maximized="1"
     scale-x="0.26458" />
  <metadata
     id="metadata5">
    <rdf:RDF>
      <cc:Work
         rdf:about="">
        <dc:format>image/svg+xml</dc:format>
        <dc:type
           rdf:resource="http://purl.org/dc/dcmitype/StillImage" />
        <dc:title />
      </cc:Work>
    </rdf:RDF>
  </metadata>
  <g
     inkscape:label="bg-purp"
     inkscape:groupmode="layer"
     id="g948"
     transform="translate(0,-263.13331)"
     style="display:inline;opacity:1"
     sodipodi:insensitive="true">
    <ellipse
       style="fill:#ffffff;fill-opacity:0.00171533;stroke:#bebebe;stroke-width:0.26458332;stroke-linecap:round;stroke-miterlimit:4;stroke-dasharray:none;stroke-opacity:1"
       id="ellipse936"
       cx="437.78748"
       cy="270.27301"
       rx="15.501633"
       ry="20.312483" />
    <flowRoot
       xml:space="preserve"
       id="flowRoot944"
       style="font-style:normal;font-variant:normal;font-weight:normal;font-stretch:normal;font-size:40px;line-height:1.25;font-family:arial;-inkscape-font-specification:arial;letter-spacing:0px;word-spacing:0px;fill:#000000;fill-opacity:1;stroke:none"
       transform="matrix(0.26458333,0,0,0.26458333,0,161.53331)"><flowRegion
         id="flowRegion940"><rect
           id="rect938"
           width="661.6499"
           height="485.88336"
           x="332.34018"
           y="-124.3961" /></flowRegion><flowPara
         id="flowPara942" /></flowRoot>    <ellipse
       style="fill:#80007e;fill-opacity:1;stroke:#00add7;stroke-width:0;stroke-linecap:round;stroke-miterlimit:4;stroke-dasharray:none;stroke-opacity:1"
       id="circle946"
       cx="16.933334"
       cy="280.06665"
       rx="13.427602"
       ry="13.427589" />
  </g>
  <g
     transform="translate(0,-263.13331)"
     style="display:inline;opacity:0.4"
     id="g976"
     inkscape:groupmode="layer"
     inkscape:label="vert fold 40"
     sodipodi:insensitive="true">
    <path
       sodipodi:nodetypes="csc"
       inkscape:connector-curvature="0"
       id="path964"
       d="m 16.933332,265.24999 c 8.183018,0 14.816663,6.63365 14.816665,14.81665 2e-6,8.18301 -6.633645,14.81666 -14.816665,14.81666"
       style="fill:#404756;fill-opacity:1;stroke:#404756;stroke-width:0;stroke-linecap:round;stroke-miterlimit:4;stroke-dasharray:none;stroke-opacity:1" />
    <ellipse
       ry="20.312483"
       rx="15.501633"
       cy="270.27301"
       cx="437.78748"
       id="ellipse966"
       style="fill:#ffffff;fill-opacity:0.00171533;stroke:#bebebe;stroke-width:0.26458332;stroke-linecap:round;stroke-miterlimit:4;stroke-dasharray:none;stroke-opacity:1" />
    <flowRoot
       transform="matrix(0.26458333,0,0,0.26458333,0,161.53331)"
       style="font-style:normal;font-variant:normal;font-weight:normal;font-stretch:normal;font-size:40px;line-height:1.25;font-family:arial;-inkscape-font-specification:arial;letter-spacing:0px;word-spacing:0px;fill:#000000;fill-opacity:1;stroke:none"
       id="flowRoot974"
       xml:space="preserve"><flowRegion
         id="flowRegion970"><rect
           y="-124.3961"
           x="332.34018"
           height="485.88336"
           width="661.6499"
           id="rect968" /></flowRegion><flowPara
         id="flowPara972" /></flowRoot>  </g>
  <g
     style="display:inline;opacity:0.4"
     transform="translate(0,-263.13331)"
     id="g962"
     inkscape:groupmode="layer"
     inkscape:label="horiz fold 40"
     sodipodi:insensitive="true">
    <path
       sodipodi:nodetypes="csc"
       inkscape:connector-curvature="0"
       id="path950"
       d="m 31.749997,280.06664 c 2e-6,8.18301 -6.633645,14.81666 -14.816665,14.81666 -8.1830191,0 -14.8166661,-6.63365 -14.8166648,-14.81666"
       style="fill:#404756;fill-opacity:1;stroke:#404756;stroke-width:0;stroke-linecap:round;stroke-miterlimit:4;stroke-dasharray:none;stroke-opacity:1" />
    <ellipse
       ry="20.312483"
       rx="15.501633"
       cy="270.27301"
       cx="437.78748"
       id="ellipse952"
       style="fill:#ffffff;fill-opacity:0.00171533;stroke:#bebebe;stroke-width:0.26458332;stroke-linecap:round;stroke-miterlimit:4;stroke-dasharray:none;stroke-opacity:1" />
    <flowRoot
       transform="matrix(0.26458333,0,0,0.26458333,0,161.53331)"
       style="font-style:normal;font-variant:normal;font-weight:normal;font-stretch:normal;font-size:40px;line-height:1.25;font-family:arial;-inkscape-font-specification:arial;letter-spacing:0px;word-spacing:0px;fill:#000000;fill-opacity:1;stroke:none"
       id="flowRoot960"
       xml:space="preserve"><flowRegion
         id="flowRegion956"><rect
           y="-124.3961"
           x="332.34018"
           height="485.88336"
           width="661.6499"
           id="rect954" /></flowRegion><flowPara
         id="flowPara958" /></flowRoot>  </g>
  <g
     inkscape:label="ring-white"
     inkscape:groupmode="layer"
     id="g1042"
     transform="translate(0,-263.13331)"
     style="display:inline"
     sodipodi:insensitive="true">
    <path
       style="fill:#ffffff;fill-opacity:1;stroke:#ffffff;stroke-width:0;stroke-linecap:round;stroke-miterlimit:4;stroke-dasharray:none;stroke-opacity:1"
       d="M 16.933332,265.24999 A 14.816664,14.816652 0 0 0 2.1166674,280.06664 14.816664,14.816652 0 0 0 16.933332,294.8833 14.816664,14.816652 0 0 0 31.749999,280.06664 14.816664,14.816652 0 0 0 16.933332,265.24999 Z m 0,1.38906 a 13.427603,13.427593 0 0 1 13.427604,13.42759 13.427603,13.427593 0 0 1 -13.427604,13.4276 13.427603,13.427593 0 0 1 -13.4276023,-13.4276 13.427603,13.427593 0 0 1 13.4276023,-13.42759 z"
       id="circle1030"
       inkscape:connector-curvature="0" />
    <ellipse
       style="fill:#ffffff;fill-opacity:0.00171533;stroke:#bebebe;stroke-width:0.26458332;stroke-linecap:round;stroke-miterlimit:4;stroke-dasharray:none;stroke-opacity:1"
       id="ellipse1032"
       cx="437.78748"
       cy="270.27301"
       rx="15.501633"
       ry="20.312483" />
    <flowRoot
       xml:space="preserve"
       id="flowRoot1040"
       style="font-style:normal;font-variant:normal;font-weight:normal;font-stretch:normal;font-size:40px;line-height:1.25;font-family:arial;-inkscape-font-specification:arial;letter-spacing:0px;word-spacing:0px;fill:#000000;fill-opacity:1;stroke:none"
       transform="matrix(0.26458333,0,0,0.26458333,0,161.53331)"><flowRegion
         id="flowRegion1036"><rect
           id="rect1034"
           width="661.6499"
           height="485.88336"
           x="332.34018"
           y="-124.3961" /></flowRegion><flowPara
         id="flowPara1038" /></flowRoot>  </g>
  <g
     style="display:inline;opacity:1"
     transform="translate(0,-101.59999)"
     inkscape:label="w[L] narrow"
     id="g1059"
     inkscape:groupmode="layer"
     sodipodi:insensitive="true">
    <g
       aria-label="w[L]"
       style="font-style:normal;font-variant:normal;font-weight:normal;font-stretch:normal;font-size:59.1388588px;line-height:1.25;font-family:arial;-inkscape-font-specification:arial;letter-spacing:0px;word-spacing:0px;fill:#ffffff;fill-opacity:1;stroke:#ffffff;stroke-width:4.23333311;stroke-miterlimit:4;stroke-dasharray:none;stroke-opacity:1"
       id="text1057"
       transform="matrix(0.12499999,0,0,0.1249999,4.4121574e-7,118.53332)">
      <path
         d="M 70.234214,34.802105 H 59.921815 Q 56.247282,22.593172 52.928349,6.7097069 49.727949,-9.1737587 47.001682,-27.427891 h 10.075333 q 0.474133,5.096933 1.4224,11.971866 0.948266,6.7563996 2.015066,13.9869324 1.185334,7.1119996 2.370667,13.8683986 1.185333,6.637867 2.252133,11.3792 1.0668,-4.741333 2.370667,-11.616266 1.422399,-6.874933 2.726266,-14.1054659 1.4224,-7.2305328 2.607733,-13.9869321 1.185333,-6.874933 1.896533,-11.497733 h 9.6012 q 0.474133,4.6228 1.4224,11.379199 1.0668,6.7564 2.133599,14.1054661 1.185334,7.2305329 2.370667,14.1054659 1.185333,6.874933 2.1336,11.616266 1.0668,-4.741333 2.252133,-11.497733 1.185333,-6.7563994 2.252133,-13.8683989 1.185333,-7.1119995 2.1336,-13.8683991 0.948267,-6.874933 1.422398,-11.971866 h 9.71973 q -2.72626,18.2541323 -6.04519,34.1375979 -3.2004,15.8834651 -6.874938,28.0923981 H 87.303013 Q 86.354746,31.127572 85.169413,25.437972 84.102613,19.629839 82.91728,13.110506 81.85048,6.5911736 80.902213,0.07184067 79.953947,-6.5660255 79.242747,-12.018559 q -0.7112,5.4525335 -1.896533,12.09039967 -1.185334,6.51933293 -2.4892,13.03866533 -1.303867,6.519333 -2.607733,12.327466 -1.185334,5.6896 -2.015067,9.364133 z"
         style="font-style:normal;font-variant:normal;font-weight:normal;font-stretch:normal;font-size:118.5333252px;font-family:'Ubuntu Condensed';-inkscape-font-specification:'Ubuntu Condensed, ';letter-spacing:0px;fill:#ffffff;fill-opacity:1;stroke:#ffffff;stroke-width:4.23333311;stroke-linecap:round;stroke-linejoin:miter;stroke-miterlimit:4;stroke-dasharray:none;stroke-opacity:1"
         id="path966"
         inkscape:connector-curvature="0" />
      <path
         d="m 123.6057,-58.009489 h 21.45453 v 8.060266 h -11.7348 v 98.619727 h 11.7348 V 56.73077 H 123.6057 Z"
         style="font-style:normal;font-variant:normal;font-weight:normal;font-stretch:normal;font-size:118.5333252px;font-family:'Ubuntu Condensed';-inkscape-font-specification:'Ubuntu Condensed, ';letter-spacing:0px;fill:#ffffff;fill-opacity:1;stroke:#ffffff;stroke-width:4.23333311;stroke-linecap:round;stroke-linejoin:miter;stroke-miterlimit:4;stroke-dasharray:none;stroke-opacity:1"
         id="path968"
         inkscape:connector-curvature="0" />
      <path
         d="m 192.38466,25.675039 v 9.127066 h -36.6268 v -82.143594 h 10.668 v 73.016528 z"
         style="font-style:normal;font-variant:normal;font-weight:normal;font-stretch:normal;font-size:118.5333252px;font-family:'Ubuntu Condensed';-inkscape-font-specification:'Ubuntu Condensed, ';letter-spacing:0px;fill:#ffffff;fill-opacity:1;stroke:#ffffff;stroke-width:4.23333311;stroke-linecap:round;stroke-linejoin:miter;stroke-miterlimit:4;stroke-dasharray:none;stroke-opacity:1"
         id="path970"
         inkscape:connector-curvature="0" />
      <path
         d="m 217.51002,56.73077 h -21.45453 v -8.060266 h 11.7348 v -98.619727 h -11.7348 v -8.060266 h 21.45453 z"
         style="font-style:normal;font-variant:normal;font-weight:normal;font-stretch:normal;font-size:118.5333252px;font-family:'Ubuntu Condensed';-inkscape-font-specification:'Ubuntu Condensed, ';letter-spacing:0px;fill:#ffffff;fill-opacity:1;stroke:#ffffff;stroke-width:4.23333311;stroke-linecap:round;stroke-linejoin:miter;stroke-miterlimit:4;stroke-dasharray:none;stroke-opacity:1"
         id="path972"
         inkscape:connector-curvature="0" />
    </g>
  </g>
</svg>
